<?xml version="1.0" ?><svg height="256px" version="1.1" viewBox="0 0 205 256" width="205px" xmlns="http://www.w3.org/2000/svg" xmlns:xlink="http://www.w3.org/1999/xlink"><title/><desc/><defs/><g fill="none" fill-rule="evenodd" id="Classic" stroke="none" stroke-width="1"><g fill="#000000" fill-rule="nonzero" id="Melon" transform="translate(-4010.000000, -6148.000000)"><g transform="translate(4010.000000, 6148.000000)"><path d="M101.7152,0 L0,57.93664 L0,176.21632 L78.62016,222.02752 L78.23616,202.77888 L15.7824,166.208 L15.7824,78.336 L93.62688,122.32192 L93.62688,251.38176 L101.84128,256 L110.31168,251.38048 L110.31168,122.32192 L188.03584,78.336 L188.03584,166.208 L125.96608,202.0096 L125.96608,221.25696 L204.97152,177.08288 L204.97152,57.93664 L101.7152,0 Z M101.7152,108.46336 L25.78816,63.712 L101.7152,19.05536 L179.47008,63.712 L101.7152,108.46336 Z M43.1816227,151.860621 L58.3867427,143.198861 L57.0974173,140.935539 L41.8922973,149.597299 L43.1816227,151.860621 Z M69.8056227,136.628621 L85.0107427,127.966861 L83.7214173,125.703539 L68.5162973,134.365299 L69.8056227,136.628621 Z M102.84736,96 L102.84736,78.5792 L100.24256,78.5792 L100.24256,96 L102.84736,96 Z M102.84736,65.632 L102.84736,48.1152 L100.24256,48.1152 L100.24256,65.632 L102.84736,65.632 Z M102.84736,36.44288 L102.84736,18.9312 L100.24256,18.9312 L100.24256,36.44288 L102.84736,36.44288 Z M135.734255,134.466261 L120.630255,125.708501 L119.323665,127.961899 L134.427665,136.719659 L135.734255,134.466261 Z M162.072115,149.696377 L146.866995,140.938617 L145.566925,143.195783 L160.772045,151.953543 L162.072115,149.696377 Z M16.3048732,167.218763 L31.4088732,158.557003 L30.1130468,156.297397 L15.0090468,164.959157 L16.3048732,167.218763 Z M188.854255,164.930261 L173.750255,156.172501 L172.443665,158.425899 L187.547665,167.183659 L188.854255,164.930261 Z" id="Logo"/></g></g></g></svg>